<svg version="1.1" id="Layer_1" xmlns="http://www.w3.org/2000/svg" xmlns:xlink="http://www.w3.org/1999/xlink" x="0px" y="0px"
	 width="100%" viewBox="0 0 424 423" enable-background="new 0 0 424 423" xml:space="preserve">
<path fill="#050810" opacity="1.000000" stroke="none" 
	d="
M425.000000,177.000000 
	C425.000000,259.305939 425.000000,341.611877 425.000000,423.958923 
	C283.741089,423.958923 142.482178,423.958923 1.111625,423.958923 
	C1.111625,283.121399 1.111625,142.242691 1.111625,1.000000 
	C74.020493,1.000000 147.041580,1.000000 220.585999,1.329554 
	C222.072891,1.439405 223.036438,1.219701 224.000000,0.999999 
	C227.361282,1.000000 230.722580,1.000000 234.638092,1.387604 
	C237.971069,2.188979 240.740982,2.679706 243.530563,2.998653 
	C247.818024,3.488859 249.212784,5.497077 247.258423,9.222004 
	C229.187149,6.540480 211.459137,5.406715 193.620819,7.143597 
	C137.728638,12.585702 90.831581,36.187923 54.455441,78.830612 
	C11.501600,129.184158 -3.982786,187.686417 7.834812,252.875061 
	C15.993361,297.879547 37.496124,335.978943 71.319244,366.673859 
	C119.691628,410.572479 176.748703,428.324524 241.383118,419.443085 
	C291.256592,412.589905 333.046844,389.467743 366.540253,351.874634 
	C396.428558,318.327911 413.570435,279.033539 418.118591,234.267380 
	C420.344269,212.361099 418.748474,190.702896 414.857849,169.134125 
	C416.546326,168.086075 417.793579,167.043350 419.108337,166.094147 
	C421.046997,164.694489 423.033722,163.361420 425.000000,162.000000 
	C425.000000,165.030121 425.000000,168.060242 424.647949,171.588898 
	C420.763306,174.264893 421.315979,175.856857 425.000000,177.000000 
z"/>
<path fill="#050913" opacity="1.000000" stroke="none" 
	d="
M247.669647,9.152868 
	C249.212784,5.497077 247.818024,3.488859 243.530563,2.998653 
	C240.740982,2.679706 237.971069,2.188979 235.096161,1.387604 
	C298.254303,1.000000 361.508636,1.000000 425.000000,1.000000 
	C425.000000,54.353992 425.000000,107.708336 425.000000,161.531342 
	C423.033722,163.361420 421.046997,164.694489 419.108337,166.094147 
	C417.793579,167.043350 416.546326,168.086075 414.685455,168.813873 
	C396.680634,98.386780 354.711182,49.047569 288.038269,21.239819 
	C275.144562,15.862155 261.154144,13.113998 247.669647,9.152868 
z"/>
<path fill="#050913" opacity="1.000000" stroke="none" 
	d="
M425.000000,176.583344 
	C421.315979,175.856857 420.763306,174.264893 424.647949,172.043701 
	C425.000000,173.388885 425.000000,174.777786 425.000000,176.583344 
z"/>
<path fill="#050913" opacity="1.000000" stroke="none" 
	d="
M223.625000,0.999999 
	C223.036438,1.219701 222.072891,1.439405 221.054657,1.329554 
	C221.750000,1.000000 222.500000,1.000000 223.625000,0.999999 
z"/>
<path fill="#FDFDFD" opacity="1.000000" stroke="none" 
	d="
M247.258423,9.222004 
	C261.154144,13.113998 275.144562,15.862155 288.038269,21.239819 
	C354.711182,49.047569 396.680634,98.386780 414.274384,168.861008 
	C418.748474,190.702896 420.344269,212.361099 418.118591,234.267380 
	C413.570435,279.033539 396.428558,318.327911 366.540253,351.874634 
	C333.046844,389.467743 291.256592,412.589905 241.383118,419.443085 
	C176.748703,428.324524 119.691628,410.572479 71.319244,366.673859 
	C37.496124,335.978943 15.993361,297.879547 7.834812,252.875061 
	C-3.982786,187.686417 11.501600,129.184158 54.455441,78.830612 
	C90.831581,36.187923 137.728638,12.585702 193.620819,7.143597 
	C211.459137,5.406715 229.187149,6.540480 247.258423,9.222004 
M345.540192,312.018738 
	C399.061737,238.748734 379.277435,146.752563 333.607452,102.393593 
	C306.454163,129.549362 279.313843,156.692200 252.185272,183.823257 
	C264.450256,194.527908 267.268677,209.218536 265.717041,225.090546 
	C263.790863,244.793671 252.276230,258.667542 232.865723,261.972168 
	C219.382111,264.267761 205.373810,263.480652 191.600037,264.073212 
	C185.445831,264.338013 180.517044,262.530365 178.775543,256.537781 
	C152.228699,283.090942 125.777725,309.548218 99.336113,335.996124 
	C168.226486,401.266724 283.617523,395.031677 345.540192,312.018738 
M133.986099,189.457352 
	C141.345383,205.246704 148.704666,221.036041 156.350922,237.441086 
	C163.003326,230.662979 169.414764,224.377686 175.479340,217.773849 
	C176.959137,216.162460 177.973450,213.528610 178.047409,211.326111 
	C178.338028,202.670898 178.027756,193.997299 178.208145,185.336090 
	C178.387100,176.743454 182.375885,172.919800 190.918213,172.848297 
	C199.249313,172.778549 207.584274,172.707611 215.911682,172.896103 
	C219.123306,172.968796 221.433258,172.094284 223.757965,169.751862 
	C251.927887,141.367264 280.214355,113.098366 308.460052,84.788940 
	C309.469330,83.777397 310.370575,82.658089 311.337616,81.571655 
	C247.823837,32.486622 150.030472,34.947136 88.660683,102.540977 
	C28.069668,169.277069 37.107170,261.873230 79.696770,313.995270 
	C80.490051,313.099670 81.220634,312.182892 82.043976,311.358765 
	C100.651962,292.733582 119.215019,274.062714 137.960083,255.576416 
	C140.160294,253.406586 139.713150,251.778824 138.840103,249.509079 
	C137.865219,246.974579 136.737213,245.502533 133.502655,245.599533 
	C124.013062,245.884094 114.509468,245.704102 105.011353,245.701782 
	C96.295303,245.699661 96.305428,245.701538 92.777740,253.978271 
	C92.127174,255.504654 91.439072,257.025940 90.629128,258.471619 
	C87.012047,264.927856 80.223801,267.227783 74.133247,264.113159 
	C69.249565,261.615723 68.283974,256.243927 71.522095,249.256866 
	C74.593781,242.628922 77.736275,236.033813 80.812202,229.407822 
	C88.291100,213.297180 95.729156,197.167572 103.227272,181.065903 
	C105.782875,175.577927 109.667267,171.845963 116.154198,171.644150 
	C122.871277,171.435196 127.017677,175.062653 129.851807,180.662628 
	C131.200867,183.328217 132.408264,186.065506 133.986099,189.457352 
M229.734818,204.253265 
	C222.550644,211.438217 215.861496,219.229248 208.032059,225.624222 
	C201.270462,231.146973 201.629196,237.528580 202.445297,245.195847 
	C208.843277,244.889343 214.993073,244.883713 221.074478,244.235886 
	C230.274582,243.255829 237.327026,238.733719 239.718063,229.462418 
	C242.420151,218.985031 242.611481,208.541916 234.519714,198.037338 
	C232.817886,200.307053 231.524582,202.031921 229.734818,204.253265 
M106.704849,227.308334 
	C114.011719,227.308334 121.318588,227.308334 129.286484,227.308334 
	C125.011879,217.236267 120.961594,207.692764 116.564178,197.331345 
	C112.620674,206.797424 109.066124,215.193069 105.672478,223.653244 
	C105.259216,224.683472 105.711227,226.060791 106.704849,227.308334 
z"/>
<path fill="#050911" opacity="1.000000" stroke="none" 
	d="
M345.317200,312.300049 
	C283.617523,395.031677 168.226486,401.266724 99.336113,335.996124 
	C125.777725,309.548218 152.228699,283.090942 178.775543,256.537781 
	C180.517044,262.530365 185.445831,264.338013 191.600037,264.073212 
	C205.373810,263.480652 219.382111,264.267761 232.865723,261.972168 
	C252.276230,258.667542 263.790863,244.793671 265.717041,225.090546 
	C267.268677,209.218536 264.450256,194.527908 252.185272,183.823257 
	C279.313843,156.692200 306.454163,129.549362 333.607452,102.393593 
	C379.277435,146.752563 399.061737,238.748734 345.317200,312.300049 
M285.478394,258.082031 
	C297.398895,264.726746 310.347382,266.000824 323.643188,265.276489 
	C331.588959,264.843628 339.074097,262.764557 345.639008,258.099640 
	C354.139984,252.058990 357.663940,243.564850 356.738586,233.398636 
	C355.828308,223.398270 349.811584,217.139435 340.645081,213.731689 
	C337.697266,212.635803 334.665405,211.716614 331.610199,210.969116 
	C325.154358,209.389633 318.511566,208.407181 312.250641,206.281174 
	C309.783600,205.443451 307.022430,202.493317 306.375183,199.992615 
	C305.467133,196.484329 308.334534,193.801010 311.717896,192.588623 
	C314.032288,191.759293 316.630310,190.821198 318.959595,191.103394 
	C325.829559,191.935669 332.705292,193.031586 339.431213,194.640991 
	C344.637756,195.886810 348.461700,195.262955 350.963348,191.497665 
	C353.276276,188.016434 352.909302,182.523148 349.870331,179.471329 
	C348.497467,178.092712 346.763733,176.886429 344.969452,176.143906 
	C329.841736,169.883774 314.549652,169.139114 299.425934,175.907715 
	C285.958069,181.935226 279.655518,195.912048 284.023376,209.396713 
	C287.690369,220.717560 297.089996,224.602341 307.532562,226.973450 
	C314.172974,228.481232 320.863586,229.795151 327.443604,231.530045 
	C330.774200,232.408203 334.336029,234.574768 333.175537,238.379303 
	C332.373291,241.009415 329.258911,243.206177 326.725342,244.932693 
	C325.241760,245.943695 322.795654,246.144913 320.910950,245.860245 
	C312.759033,244.628845 304.503937,243.637161 296.579559,241.480865 
	C290.046539,239.703171 286.613464,239.598160 283.589203,243.679276 
	C280.352783,248.046677 280.787445,252.942352 285.478394,258.082031 
z"/>
<path fill="#050911" opacity="1.000000" stroke="none" 
	d="
M133.832962,189.113831 
	C132.408264,186.065506 131.200867,183.328217 129.851807,180.662628 
	C127.017677,175.062653 122.871277,171.435196 116.154198,171.644150 
	C109.667267,171.845963 105.782875,175.577927 103.227272,181.065903 
	C95.729156,197.167572 88.291100,213.297180 80.812202,229.407822 
	C77.736275,236.033813 74.593781,242.628922 71.522095,249.256866 
	C68.283974,256.243927 69.249565,261.615723 74.133247,264.113159 
	C80.223801,267.227783 87.012047,264.927856 90.629128,258.471619 
	C91.439072,257.025940 92.127174,255.504654 92.777740,253.978271 
	C96.305428,245.701538 96.295303,245.699661 105.011353,245.701782 
	C114.509468,245.704102 124.013062,245.884094 133.502655,245.599533 
	C136.737213,245.502533 137.865219,246.974579 138.840103,249.509079 
	C139.713150,251.778824 140.160294,253.406586 137.960083,255.576416 
	C119.215019,274.062714 100.651962,292.733582 82.043976,311.358765 
	C81.220634,312.182892 80.490051,313.099670 79.696770,313.995270 
	C37.107170,261.873230 28.069668,169.277069 88.660683,102.540977 
	C150.030472,34.947136 247.823837,32.486622 311.337616,81.571655 
	C310.370575,82.658089 309.469330,83.777397 308.460052,84.788940 
	C280.214355,113.098366 251.927887,141.367264 223.757965,169.751862 
	C221.433258,172.094284 219.123306,172.968796 215.911682,172.896103 
	C207.584274,172.707611 199.249313,172.778549 190.918213,172.848297 
	C182.375885,172.919800 178.387100,176.743454 178.208145,185.336090 
	C178.027756,193.997299 178.338028,202.670898 178.047409,211.326111 
	C177.973450,213.528610 176.959137,216.162460 175.479340,217.773849 
	C169.414764,224.377686 163.003326,230.662979 156.350922,237.441086 
	C148.704666,221.036041 141.345383,205.246704 133.832962,189.113831 
z"/>
<path fill="#080C14" opacity="1.000000" stroke="none" 
	d="
M229.983063,204.005020 
	C231.524582,202.031921 232.817886,200.307053 234.519714,198.037338 
	C242.611481,208.541916 242.420151,218.985031 239.718063,229.462418 
	C237.327026,238.733719 230.274582,243.255829 221.074478,244.235886 
	C214.993073,244.883713 208.843277,244.889343 202.445297,245.195847 
	C201.629196,237.528580 201.270462,231.146973 208.032059,225.624222 
	C215.861496,219.229248 222.550644,211.438217 229.983063,204.005020 
z"/>
<path fill="#0A0E16" opacity="1.000000" stroke="none" 
	d="
M106.233543,227.292786 
	C105.711227,226.060791 105.259216,224.683472 105.672478,223.653244 
	C109.066124,215.193069 112.620674,206.797424 116.564178,197.331345 
	C120.961594,207.692764 125.011879,217.236267 129.286484,227.308334 
	C121.318588,227.308334 114.011719,227.308334 106.233543,227.292786 
z"/>
<path fill="#FCFCFC" opacity="1.000000" stroke="none" 
	d="
M285.156250,257.891174 
	C280.787445,252.942352 280.352783,248.046677 283.589203,243.679276 
	C286.613464,239.598160 290.046539,239.703171 296.579559,241.480865 
	C304.503937,243.637161 312.759033,244.628845 320.910950,245.860245 
	C322.795654,246.144913 325.241760,245.943695 326.725342,244.932693 
	C329.258911,243.206177 332.373291,241.009415 333.175537,238.379303 
	C334.336029,234.574768 330.774200,232.408203 327.443604,231.530045 
	C320.863586,229.795151 314.172974,228.481232 307.532562,226.973450 
	C297.089996,224.602341 287.690369,220.717560 284.023376,209.396713 
	C279.655518,195.912048 285.958069,181.935226 299.425934,175.907715 
	C314.549652,169.139114 329.841736,169.883774 344.969452,176.143906 
	C346.763733,176.886429 348.497467,178.092712 349.870331,179.471329 
	C352.909302,182.523148 353.276276,188.016434 350.963348,191.497665 
	C348.461700,195.262955 344.637756,195.886810 339.431213,194.640991 
	C332.705292,193.031586 325.829559,191.935669 318.959595,191.103394 
	C316.630310,190.821198 314.032288,191.759293 311.717896,192.588623 
	C308.334534,193.801010 305.467133,196.484329 306.375183,199.992615 
	C307.022430,202.493317 309.783600,205.443451 312.250641,206.281174 
	C318.511566,208.407181 325.154358,209.389633 331.610199,210.969116 
	C334.665405,211.716614 337.697266,212.635803 340.645081,213.731689 
	C349.811584,217.139435 355.828308,223.398270 356.738586,233.398636 
	C357.663940,243.564850 354.139984,252.058990 345.639008,258.099640 
	C339.074097,262.764557 331.588959,264.843628 323.643188,265.276489 
	C310.347382,266.000824 297.398895,264.726746 285.156250,257.891174 
z"/>
</svg>