<svg version="1.1" id="Layer_1" xmlns="http://www.w3.org/2000/svg" xmlns:xlink="http://www.w3.org/1999/xlink" x="0px" y="0px"
	 width="100%" viewBox="0 0 392 397" enable-background="new 0 0 392 397" xml:space="preserve">
<path fill="#080E1D" opacity="1.000000" stroke="none" 
	d="
M1.000000,133.000000 
	C1.000000,88.680550 1.000000,44.861107 1.000000,1.020829 
	C131.611389,1.020829 262.222778,1.020829 392.917084,1.020829 
	C392.917084,133.236084 392.917084,265.472229 392.917084,397.854187 
	C262.333466,397.854187 131.666748,397.854187 1.000000,397.854187 
	C1.000000,309.777313 1.000000,221.638657 1.000000,133.000000 
M243.923935,19.385048 
	C229.604904,24.183746 215.241333,28.855911 200.998459,33.870872 
	C197.476257,35.111046 194.545135,35.170017 191.049377,33.777554 
	C144.175751,15.106516 95.481003,5.698036 45.021702,5.510047 
	C36.189743,5.477143 32.164257,9.509003 32.078632,18.241152 
	C32.026726,23.534805 32.069069,28.829384 32.069069,33.827297 
	C27.629606,33.827297 23.667805,33.895782 19.709127,33.813610 
	C10.308819,33.618473 6.319923,37.390423 6.315778,46.940479 
	C6.284969,117.928734 6.287981,188.917007 6.310344,259.905273 
	C6.313197,268.961273 9.973982,272.801086 18.917078,272.829651 
	C42.783325,272.905853 66.481293,274.882660 89.981339,279.003723 
	C99.738716,280.714783 109.417068,282.876495 119.224892,284.852112 
	C106.072548,323.187286 121.957664,357.528046 145.143402,375.888092 
	C172.106277,397.239136 207.987274,399.837280 237.667450,382.321777 
	C252.407913,373.622803 263.367645,361.353516 270.472534,345.746094 
	C279.474121,325.972137 280.140625,305.747040 272.910797,285.008972 
	C279.475067,283.581207 285.455933,282.179108 291.478455,280.987793 
	C318.671875,275.608795 346.126312,272.880310 373.856842,272.806000 
	C382.240082,272.783539 386.067688,268.747742 386.069153,260.506378 
	C386.081818,189.184830 386.085205,117.863289 386.064850,46.541744 
	C386.062439,38.098721 381.426880,33.656452 373.007904,33.750557 
	C368.750153,33.798149 364.491425,33.758877 360.004059,33.758877 
	C360.004059,28.829254 360.008026,24.185722 360.003265,19.542198 
	C359.992584,9.096864 356.372833,5.445232 345.845917,5.502306 
	C311.546783,5.688265 277.845764,10.354421 243.923935,19.385048 
z"/>
<path fill="#FDFDFD" opacity="1.000000" stroke="none" 
	d="
M244.313309,19.261326 
	C277.845764,10.354421 311.546783,5.688265 345.845917,5.502306 
	C356.372833,5.445232 359.992584,9.096864 360.003265,19.542198 
	C360.008026,24.185722 360.004059,28.829254 360.004059,33.758877 
	C364.491425,33.758877 368.750153,33.798149 373.007904,33.750557 
	C381.426880,33.656452 386.062439,38.098721 386.064850,46.541744 
	C386.085205,117.863289 386.081818,189.184830 386.069153,260.506378 
	C386.067688,268.747742 382.240082,272.783539 373.856842,272.806000 
	C346.126312,272.880310 318.671875,275.608795 291.478455,280.987793 
	C285.455933,282.179108 279.475067,283.581207 272.910797,285.008972 
	C280.140625,305.747040 279.474121,325.972137 270.472534,345.746094 
	C263.367645,361.353516 252.407913,373.622803 237.667450,382.321777 
	C207.987274,399.837280 172.106277,397.239136 145.143402,375.888092 
	C121.957664,357.528046 106.072548,323.187286 119.224892,284.852112 
	C109.417068,282.876495 99.738716,280.714783 89.981339,279.003723 
	C66.481293,274.882660 42.783325,272.905853 18.917078,272.829651 
	C9.973982,272.801086 6.313197,268.961273 6.310344,259.905273 
	C6.287981,188.917007 6.284969,117.928734 6.315778,46.940479 
	C6.319923,37.390423 10.308819,33.618473 19.709127,33.813610 
	C23.667805,33.895782 27.629606,33.827297 32.069069,33.827297 
	C32.069069,28.829384 32.026726,23.534805 32.078632,18.241152 
	C32.164257,9.509003 36.189743,5.477143 45.021702,5.510047 
	C95.481003,5.698036 144.175751,15.106516 191.049377,33.777554 
	C194.545135,35.170017 197.476257,35.111046 200.998459,33.870872 
	C215.241333,28.855911 229.604904,24.183746 244.313309,19.261326 
M98.607552,237.901306 
	C113.098274,240.845551 127.579994,243.835739 142.090378,246.679611 
	C144.046738,247.063034 146.734116,247.533844 148.088699,246.568710 
	C159.247177,238.618179 171.565079,233.647964 185.221436,231.450668 
	C185.327637,229.925949 185.496902,228.627640 185.497177,227.329285 
	C185.508560,171.184418 185.468048,115.039459 185.594864,58.894882 
	C185.602478,55.525085 184.202438,54.320919 181.454361,53.254475 
	C146.841064,39.822048 111.078697,31.331606 74.074112,28.190857 
	C67.533569,27.635731 60.961990,27.446117 54.387413,27.086765 
	C54.387413,96.403572 54.387413,164.981232 54.387413,233.243240 
	C69.005196,234.780334 83.365990,236.290405 98.607552,237.901306 
M338.299652,64.500137 
	C338.299652,52.090302 338.299652,39.680466 338.299652,27.413340 
	C337.243378,27.217970 336.925049,27.098074 336.611633,27.109760 
	C293.024384,28.734934 250.935989,37.457851 210.368011,53.558945 
	C207.358246,54.753494 207.028702,56.479229 207.031265,59.181541 
	C207.084412,115.145569 207.069565,171.109665 207.082520,227.073746 
	C207.082855,228.521286 207.244614,229.968796 207.335846,231.495926 
	C220.097931,233.588501 231.765427,237.761276 242.043854,245.149429 
	C244.903564,247.205002 247.319550,247.406891 250.668808,246.765274 
	C270.563934,242.953979 290.477539,239.195679 310.475800,235.985718 
	C319.605591,234.520264 328.943115,234.349136 338.299622,233.581696 
	C338.299622,177.421509 338.299622,121.460831 338.299652,64.500137 
M159.515732,261.951111 
	C144.650925,273.169495 135.741501,288.070160 134.298264,306.555817 
	C132.245071,332.853851 142.791199,353.671570 165.786026,366.528015 
	C188.752899,379.368805 212.214859,377.894775 233.226898,361.873718 
	C254.469818,345.676697 262.388153,323.417267 256.288696,297.292053 
	C246.435715,255.089752 196.429840,235.690811 159.515732,261.951111 
z"/>
<path fill="#0A101E" opacity="1.000000" stroke="none" 
	d="
M98.167168,237.850891 
	C83.365990,236.290405 69.005196,234.780334 54.387413,233.243240 
	C54.387413,164.981232 54.387413,96.403572 54.387413,27.086765 
	C60.961990,27.446117 67.533569,27.635731 74.074112,28.190857 
	C111.078697,31.331606 146.841064,39.822048 181.454361,53.254475 
	C184.202438,54.320919 185.602478,55.525085 185.594864,58.894882 
	C185.468048,115.039459 185.508560,171.184418 185.497177,227.329285 
	C185.496902,228.627640 185.327637,229.925949 185.221436,231.450668 
	C171.565079,233.647964 159.247177,238.618179 148.088699,246.568710 
	C146.734116,247.533844 144.046738,247.063034 142.090378,246.679611 
	C127.579994,243.835739 113.098274,240.845551 98.167168,237.850891 
M153.839310,155.634186 
	C131.903900,151.154785 109.999214,146.515839 88.016136,142.284088 
	C80.509834,140.839127 74.664207,145.059540 73.921501,151.397873 
	C73.141899,158.051071 77.986580,163.190994 85.667030,163.982468 
	C89.797646,164.408127 93.980431,164.680923 98.021164,165.564560 
	C115.838997,169.461090 133.633438,173.470245 151.394974,177.615860 
	C159.202194,179.438110 166.030640,173.943359 165.232651,166.017242 
	C164.594727,159.681091 160.262466,157.033600 153.839310,155.634186 
M161.965210,92.543198 
	C167.775009,85.431511 165.805984,76.608139 157.563797,74.142395 
	C134.115463,67.127533 110.181671,62.357822 85.890450,59.430206 
	C79.953011,58.714619 74.471619,63.287624 73.917038,68.945892 
	C73.322365,75.013252 77.712502,80.430626 83.702179,81.098511 
	C105.874336,83.570869 127.703583,87.779091 149.068954,94.243851 
	C153.405960,95.556160 157.513153,96.021965 161.965210,92.543198 
M150.139740,113.284042 
	C140.609024,111.033928 131.144348,108.433144 121.530891,106.622299 
	C109.459084,104.348373 97.301193,102.429298 85.109581,100.935524 
	C78.763924,100.158012 74.002129,104.605682 73.352081,110.563789 
	C72.777077,115.834068 77.437508,121.569305 83.268990,122.257957 
	C106.416771,124.991539 129.189117,129.481262 151.536606,136.158249 
	C157.288040,137.876678 162.277420,135.090805 164.292633,129.625320 
	C166.306030,124.164726 163.906219,118.297279 158.479477,115.973198 
	C156.054611,114.934715 153.425201,114.373764 150.139740,113.284042 
M142.569122,193.940613 
	C124.309219,190.509598 106.066505,186.983093 87.781647,183.690674 
	C79.508667,182.201019 74.421600,185.593521 73.465981,192.672882 
	C72.650253,198.715881 77.244598,203.886093 84.587982,204.783585 
	C107.059258,207.529938 129.150299,212.017715 150.804184,218.668259 
	C156.909821,220.543488 162.536621,217.604584 164.455246,211.923981 
	C166.398407,206.170715 163.331177,200.042236 157.265808,198.056305 
	C152.694641,196.559616 148.012344,195.402405 142.569122,193.940613 
z"/>
<path fill="#090F1F" opacity="1.000000" stroke="none" 
	d="
M338.299622,65.000145 
	C338.299622,121.460831 338.299622,177.421509 338.299622,233.581696 
	C328.943115,234.349136 319.605591,234.520264 310.475800,235.985718 
	C290.477539,239.195679 270.563934,242.953979 250.668808,246.765274 
	C247.319550,247.406891 244.903564,247.205002 242.043854,245.149429 
	C231.765427,237.761276 220.097931,233.588501 207.335846,231.495926 
	C207.244614,229.968796 207.082855,228.521286 207.082520,227.073746 
	C207.069565,171.109665 207.084412,115.145569 207.031265,59.181541 
	C207.028702,56.479229 207.358246,54.753494 210.368011,53.558945 
	C250.935989,37.457851 293.024384,28.734934 336.611633,27.109760 
	C336.925049,27.098074 337.243378,27.217970 338.299652,27.413340 
	C338.299652,39.680466 338.299652,52.090302 338.299622,65.000145 
M319.066711,69.548409 
	C317.761261,62.276226 313.319061,58.824387 306.214355,59.551243 
	C282.832947,61.943310 259.915955,66.635941 237.445724,73.505157 
	C229.402618,75.963959 226.070450,81.352081 228.091507,88.365196 
	C229.847626,94.459068 235.088852,96.137634 243.226349,94.387321 
	C264.643463,89.780647 286.120148,85.437706 307.628784,81.277512 
	C314.967560,79.858055 317.575592,77.847374 319.066711,69.548409 
M295.818298,143.251968 
	C294.671112,143.462357 293.515991,143.637009 292.377899,143.888474 
	C273.888153,147.973373 255.354187,151.873062 236.934799,156.254242 
	C229.324936,158.064285 226.090149,164.184875 228.119507,171.000229 
	C229.836884,176.767868 235.474045,178.999893 242.823639,177.055237 
	C252.137283,174.590881 261.414337,171.882675 270.854004,170.026215 
	C283.249054,167.588501 295.778717,165.824081 308.267242,163.877502 
	C315.071259,162.816956 319.554321,157.912766 319.041199,151.783340 
	C318.541962,145.819214 313.009888,141.595230 306.131042,142.072708 
	C302.978485,142.291550 299.844543,142.778488 295.818298,143.251968 
M276.175781,105.679817 
	C262.505432,109.086357 248.777573,112.282295 235.190826,115.994759 
	C229.064392,117.668747 226.257538,123.938774 228.077744,129.913971 
	C229.570129,134.812958 234.942673,137.898346 240.495071,136.311050 
	C263.202637,129.819534 286.233063,125.045570 309.671021,122.082550 
	C312.265961,121.754494 315.113739,119.615425 316.890717,117.511047 
	C319.632050,114.264618 320.069580,110.117119 317.607574,106.357368 
	C315.189667,102.664902 311.725189,100.452316 307.066620,101.102776 
	C297.036804,102.503197 287.018860,103.988548 276.175781,105.679817 
M310.862915,183.916809 
	C303.603394,184.608047 296.209503,184.649612 289.110809,186.118195 
	C271.262878,189.810562 253.518341,194.023422 235.799652,198.306046 
	C230.872986,199.496826 227.870041,203.096985 227.588715,208.380875 
	C227.163345,216.370270 233.666367,220.445038 242.342422,218.563995 
	C264.049011,213.857834 285.815948,209.416809 307.615601,205.161163 
	C313.951874,203.924225 317.958435,201.156647 318.922943,195.777023 
	C319.802612,190.870575 317.523590,187.181213 310.862915,183.916809 
z"/>
<path fill="#080F1D" opacity="1.000000" stroke="none" 
	d="
M159.802246,261.735016 
	C196.429840,235.690811 246.435715,255.089752 256.288696,297.292053 
	C262.388153,323.417267 254.469818,345.676697 233.226898,361.873718 
	C212.214859,377.894775 188.752899,379.368805 165.786026,366.528015 
	C142.791199,353.671570 132.245071,332.853851 134.298264,306.555817 
	C135.741501,288.070160 144.650925,273.169495 159.802246,261.735016 
M184.923096,344.966003 
	C198.513275,335.984680 212.208206,327.156189 225.642517,317.947449 
	C231.077133,314.222229 230.407547,308.367950 224.595108,304.509155 
	C212.546234,296.510101 200.577438,288.378815 188.299530,280.746155 
	C185.854950,279.226440 181.504562,278.418976 179.254333,279.603394 
	C177.013214,280.783051 175.183563,284.854309 175.115723,287.703918 
	C174.731155,303.856812 174.906586,320.023682 174.940796,336.185638 
	C174.954178,342.511963 177.540176,344.964355 184.923096,344.966003 
z"/>
<path fill="#FCFCFC" opacity="1.000000" stroke="none" 
	d="
M154.222198,155.745728 
	C160.262466,157.033600 164.594727,159.681091 165.232651,166.017242 
	C166.030640,173.943359 159.202194,179.438110 151.394974,177.615860 
	C133.633438,173.470245 115.838997,169.461090 98.021164,165.564560 
	C93.980431,164.680923 89.797646,164.408127 85.667030,163.982468 
	C77.986580,163.190994 73.141899,158.051071 73.921501,151.397873 
	C74.664207,145.059540 80.509834,140.839127 88.016136,142.284088 
	C109.999214,146.515839 131.903900,151.154785 154.222198,155.745728 
z"/>
<path fill="#FCFCFC" opacity="1.000000" stroke="none" 
	d="
M161.668671,92.806831 
	C157.513153,96.021965 153.405960,95.556160 149.068954,94.243851 
	C127.703583,87.779091 105.874336,83.570869 83.702179,81.098511 
	C77.712502,80.430626 73.322365,75.013252 73.917038,68.945892 
	C74.471619,63.287624 79.953011,58.714619 85.890450,59.430206 
	C110.181671,62.357822 134.115463,67.127533 157.563797,74.142395 
	C165.805984,76.608139 167.775009,85.431511 161.668671,92.806831 
z"/>
<path fill="#FCFCFC" opacity="1.000000" stroke="none" 
	d="
M150.514191,113.440063 
	C153.425201,114.373764 156.054611,114.934715 158.479477,115.973198 
	C163.906219,118.297279 166.306030,124.164726 164.292633,129.625320 
	C162.277420,135.090805 157.288040,137.876678 151.536606,136.158249 
	C129.189117,129.481262 106.416771,124.991539 83.268990,122.257957 
	C77.437508,121.569305 72.777077,115.834068 73.352081,110.563789 
	C74.002129,104.605682 78.763924,100.158012 85.109581,100.935524 
	C97.301193,102.429298 109.459084,104.348373 121.530891,106.622299 
	C131.144348,108.433144 140.609024,111.033928 150.514191,113.440063 
z"/>
<path fill="#FBFBFC" opacity="1.000000" stroke="none" 
	d="
M142.974335,194.017349 
	C148.012344,195.402405 152.694641,196.559616 157.265808,198.056305 
	C163.331177,200.042236 166.398407,206.170715 164.455246,211.923981 
	C162.536621,217.604584 156.909821,220.543488 150.804184,218.668259 
	C129.150299,212.017715 107.059258,207.529938 84.587982,204.783585 
	C77.244598,203.886093 72.650253,198.715881 73.465981,192.672882 
	C74.421600,185.593521 79.508667,182.201019 87.781647,183.690674 
	C106.066505,186.983093 124.309219,190.509598 142.974335,194.017349 
z"/>
<path fill="#FCFCFC" opacity="1.000000" stroke="none" 
	d="
M319.052917,69.957253 
	C317.575592,77.847374 314.967560,79.858055 307.628784,81.277512 
	C286.120148,85.437706 264.643463,89.780647 243.226349,94.387321 
	C235.088852,96.137634 229.847626,94.459068 228.091507,88.365196 
	C226.070450,81.352081 229.402618,75.963959 237.445724,73.505157 
	C259.915955,66.635941 282.832947,61.943310 306.214355,59.551243 
	C313.319061,58.824387 317.761261,62.276226 319.052917,69.957253 
z"/>
<path fill="#FCFCFC" opacity="1.000000" stroke="none" 
	d="
M296.260254,143.197906 
	C299.844543,142.778488 302.978485,142.291550 306.131042,142.072708 
	C313.009888,141.595230 318.541962,145.819214 319.041199,151.783340 
	C319.554321,157.912766 315.071259,162.816956 308.267242,163.877502 
	C295.778717,165.824081 283.249054,167.588501 270.854004,170.026215 
	C261.414337,171.882675 252.137283,174.590881 242.823639,177.055237 
	C235.474045,178.999893 229.836884,176.767868 228.119507,171.000229 
	C226.090149,164.184875 229.324936,158.064285 236.934799,156.254242 
	C255.354187,151.873062 273.888153,147.973373 292.377899,143.888474 
	C293.515991,143.637009 294.671112,143.462357 296.260254,143.197906 
z"/>
<path fill="#FBFBFC" opacity="1.000000" stroke="none" 
	d="
M276.585938,105.559479 
	C287.018860,103.988548 297.036804,102.503197 307.066620,101.102776 
	C311.725189,100.452316 315.189667,102.664902 317.607574,106.357368 
	C320.069580,110.117119 319.632050,114.264618 316.890717,117.511047 
	C315.113739,119.615425 312.265961,121.754494 309.671021,122.082550 
	C286.233063,125.045570 263.202637,129.819534 240.495071,136.311050 
	C234.942673,137.898346 229.570129,134.812958 228.077744,129.913971 
	C226.257538,123.938774 229.064392,117.668747 235.190826,115.994759 
	C248.777573,112.282295 262.505432,109.086357 276.585938,105.559479 
z"/>
<path fill="#FCFCFC" opacity="1.000000" stroke="none" 
	d="
M311.279602,183.997528 
	C317.523590,187.181213 319.802612,190.870575 318.922943,195.777023 
	C317.958435,201.156647 313.951874,203.924225 307.615601,205.161163 
	C285.815948,209.416809 264.049011,213.857834 242.342422,218.563995 
	C233.666367,220.445038 227.163345,216.370270 227.588715,208.380875 
	C227.870041,203.096985 230.872986,199.496826 235.799652,198.306046 
	C253.518341,194.023422 271.262878,189.810562 289.110809,186.118195 
	C296.209503,184.649612 303.603394,184.608047 311.279602,183.997528 
z"/>
<path fill="#FDFDFD" opacity="1.000000" stroke="none" 
	d="
M184.527008,345.040100 
	C177.540176,344.964355 174.954178,342.511963 174.940796,336.185638 
	C174.906586,320.023682 174.731155,303.856812 175.115723,287.703918 
	C175.183563,284.854309 177.013214,280.783051 179.254333,279.603394 
	C181.504562,278.418976 185.854950,279.226440 188.299530,280.746155 
	C200.577438,288.378815 212.546234,296.510101 224.595108,304.509155 
	C230.407547,308.367950 231.077133,314.222229 225.642517,317.947449 
	C212.208206,327.156189 198.513275,335.984680 184.527008,345.040100 
z"/>
</svg>