<svg version="1.1" id="Layer_1" xmlns="http://www.w3.org/2000/svg" xmlns:xlink="http://www.w3.org/1999/xlink" x="0px" y="0px"
	 width="100%" viewBox="0 0 434 436" enable-background="new 0 0 434 436" xml:space="preserve">
<path fill="#070D1A" opacity="1.000000" stroke="none" 
	d="
M1.000000,138.000000 
	C1.000000,92.349442 1.000000,46.698883 1.000000,1.024163 
	C145.599518,1.024163 290.199066,1.024163 434.899292,1.024163 
	C434.899292,146.214859 434.899292,291.429810 434.899292,437.000000 
	C358.645599,437.000000 282.290649,437.000000 205.467850,436.579926 
	C204.999878,434.480194 204.999756,432.800568 205.461365,431.034973 
	C260.754486,430.943481 315.585968,430.989258 370.417267,430.913239 
	C403.524292,430.867340 428.914459,405.369568 428.926239,372.279663 
	C428.951111,302.448364 428.963104,232.617050 428.867401,162.785904 
	C428.861053,158.164841 428.384094,153.429504 427.307831,148.943649 
	C420.810455,121.862907 398.160980,104.246651 369.864166,104.179329 
	C336.698669,104.100426 303.532806,104.162231 270.367126,104.162987 
	C268.622162,104.163025 266.877197,104.162987 265.132202,104.162987 
	C264.959320,103.780365 264.786438,103.397736 264.613556,103.015114 
	C265.953888,101.852562 267.370575,100.766457 268.623138,99.515976 
	C287.730347,80.440620 306.787231,61.314751 325.927734,42.272915 
	C330.562653,37.661896 333.258331,32.354492 332.481567,25.755270 
	C331.539154,17.748951 327.143372,12.111608 319.530884,9.562666 
	C311.939911,7.020910 305.126526,8.841897 299.396027,14.579511 
	C273.485626,40.522095 247.542984,66.432434 221.649841,92.392174 
	C220.365463,93.679855 219.436310,95.321854 217.647781,97.735344 
	C215.744995,95.257179 214.776138,93.660118 213.494263,92.375359 
	C187.949921,66.773880 162.376678,41.201202 136.779312,15.652743 
	C135.140579,14.017142 133.425003,12.347806 131.460419,11.168624 
	C123.129715,6.168426 112.430145,8.353852 106.399178,16.109898 
	C100.720551,23.412813 101.387642,34.313099 108.216736,41.182682 
	C127.603951,60.684856 147.071915,80.106903 166.564255,99.504059 
	C167.804382,100.738136 169.523865,101.490501 171.020340,102.466965 
	C170.654938,103.032196 170.289536,103.597435 169.924133,104.162666 
	C168.167511,104.162666 166.410904,104.162651 164.654297,104.162659 
	C131.988586,104.162834 99.322701,104.109840 66.657379,104.221550 
	C61.855022,104.237968 56.963623,104.588821 52.270477,105.550995 
	C33.172855,109.466347 20.009380,121.108315 10.621605,138.017929 
	C7.108311,138.007095 4.054156,138.003555 1.000000,138.000000 
z"/>
<path fill="#070D18" opacity="1.000000" stroke="none" 
	d="
M204.999634,431.120911 
	C204.999756,432.800568 204.999878,434.480194 205.000000,436.579926 
	C137.059174,437.000000 69.118340,437.000000 1.000000,437.000000 
	C1.000000,337.645844 1.000000,238.291580 1.000000,138.468658 
	C4.054156,138.003555 7.108311,138.007095 10.614288,138.399536 
	C9.431398,147.207367 6.425144,155.618713 6.378376,164.046478 
	C5.994965,233.138062 6.147625,302.232697 6.169178,371.326416 
	C6.179875,405.622192 31.413370,430.898102 65.662613,430.924408 
	C106.119865,430.955475 146.577164,430.924652 187.034439,430.941040 
	C193.022858,430.943481 199.011230,431.058136 204.999634,431.120911 
z"/>
<path fill="#FDFDFD" opacity="1.000000" stroke="none" 
	d="
M205.461365,431.034973 
	C199.011230,431.058136 193.022858,430.943481 187.034439,430.941040 
	C146.577164,430.924652 106.119865,430.955475 65.662613,430.924408 
	C31.413370,430.898102 6.179875,405.622192 6.169178,371.326416 
	C6.147625,302.232697 5.994965,233.138062 6.378376,164.046478 
	C6.425144,155.618713 9.431398,147.207367 11.073425,138.406830 
	C20.009380,121.108315 33.172855,109.466347 52.270477,105.550995 
	C56.963623,104.588821 61.855022,104.237968 66.657379,104.221550 
	C99.322701,104.109840 131.988586,104.162834 164.654297,104.162659 
	C166.410904,104.162651 168.167511,104.162666 169.924133,104.162666 
	C170.289536,103.597435 170.654938,103.032196 171.020340,102.466965 
	C169.523865,101.490501 167.804382,100.738136 166.564255,99.504059 
	C147.071915,80.106903 127.603951,60.684856 108.216736,41.182682 
	C101.387642,34.313099 100.720551,23.412813 106.399178,16.109898 
	C112.430145,8.353852 123.129715,6.168426 131.460419,11.168624 
	C133.425003,12.347806 135.140579,14.017142 136.779312,15.652743 
	C162.376678,41.201202 187.949921,66.773880 213.494263,92.375359 
	C214.776138,93.660118 215.744995,95.257179 217.647781,97.735344 
	C219.436310,95.321854 220.365463,93.679855 221.649841,92.392174 
	C247.542984,66.432434 273.485626,40.522095 299.396027,14.579511 
	C305.126526,8.841897 311.939911,7.020910 319.530884,9.562666 
	C327.143372,12.111608 331.539154,17.748951 332.481567,25.755270 
	C333.258331,32.354492 330.562653,37.661896 325.927734,42.272915 
	C306.787231,61.314751 287.730347,80.440620 268.623138,99.515976 
	C267.370575,100.766457 265.953888,101.852562 264.613556,103.015114 
	C264.786438,103.397736 264.959320,103.780365 265.132202,104.162987 
	C266.877197,104.162987 268.622162,104.163025 270.367126,104.162987 
	C303.532806,104.162231 336.698669,104.100426 369.864166,104.179329 
	C398.160980,104.246651 420.810455,121.862907 427.307831,148.943649 
	C428.384094,153.429504 428.861053,158.164841 428.867401,162.785904 
	C428.963104,232.617050 428.951111,302.448364 428.926239,372.279663 
	C428.914459,405.369568 403.524292,430.867340 370.417267,430.913239 
	C315.585968,430.989258 260.754486,430.943481 205.461365,431.034973 
M169.499847,392.295715 
	C235.979309,392.294586 302.458771,392.295258 368.938232,392.290924 
	C383.019104,392.290009 390.479248,384.889130 390.484100,370.749725 
	C390.507629,301.937378 390.512909,233.125000 390.479431,164.312653 
	C390.472565,150.186234 382.991669,142.839752 368.864899,142.839432 
	C268.062286,142.837143 167.259689,142.836777 66.457085,142.840027 
	C52.122849,142.840500 44.746620,149.908615 44.733505,164.136749 
	C44.669937,233.115662 44.673431,302.094696 44.729721,371.073608 
	C44.741112,385.030762 52.170776,392.289001 66.031075,392.293030 
	C100.187325,392.302979 134.343582,392.295959 169.499847,392.295715 
z"/>
<path fill="#070D1A" opacity="1.000000" stroke="none" 
	d="
M168.999847,392.295746 
	C134.343582,392.295959 100.187325,392.302979 66.031075,392.293030 
	C52.170776,392.289001 44.741112,385.030762 44.729721,371.073608 
	C44.673431,302.094696 44.669937,233.115662 44.733505,164.136749 
	C44.746620,149.908615 52.122849,142.840500 66.457085,142.840027 
	C167.259689,142.836777 268.062286,142.837143 368.864899,142.839432 
	C382.991669,142.839752 390.472565,150.186234 390.479431,164.312653 
	C390.512909,233.125000 390.507629,301.937378 390.484100,370.749725 
	C390.479248,384.889130 383.019104,392.290009 368.938232,392.290924 
	C302.458771,392.295258 235.979309,392.294586 168.999847,392.295746 
M342.576569,286.371155 
	C344.422760,284.806000 347.786194,283.322968 347.876068,281.662720 
	C348.624359,267.839996 345.021545,255.495514 332.989868,247.216568 
	C317.430756,236.510391 294.274902,239.449615 281.422852,253.430130 
	C268.949646,266.998535 268.022858,292.153809 279.099487,306.682617 
	C294.406555,326.760284 328.067505,324.559204 342.517334,314.870880 
	C346.977600,311.880371 347.994385,306.962402 345.554291,302.597168 
	C343.434692,298.805267 339.677063,298.517731 334.149506,299.963318 
	C327.010376,301.830322 319.611542,303.665955 312.310486,303.723175 
	C301.796143,303.805603 294.872162,296.356781 294.829224,286.467224 
	C310.457520,286.467224 326.086639,286.467224 342.576569,286.371155 
M242.062790,294.570526 
	C247.739304,281.663696 253.492065,268.789612 259.055573,255.834244 
	C261.351807,250.487213 260.314850,245.968430 256.657410,243.165726 
	C253.085495,240.428574 246.586945,240.203888 243.155777,243.415192 
	C240.945709,245.483643 239.263641,248.383759 238.060898,251.215256 
	C232.463837,264.391876 227.116409,277.674530 221.332840,291.764221 
	C219.012146,285.975708 217.024124,281.069550 215.076416,276.147430 
	C211.414337,266.892944 207.948746,257.555908 204.069763,248.393631 
	C201.199951,241.615036 193.754974,239.209274 186.899353,242.384872 
	C181.826279,244.734787 180.308624,250.274323 183.215103,257.058563 
	C191.121902,275.514465 199.134872,293.924988 207.142441,312.337555 
	C209.686096,318.186401 214.065323,321.754059 220.580292,321.764740 
	C227.026550,321.775330 231.539215,318.580200 234.095016,312.552551 
	C236.555145,306.750519 239.216232,301.033691 242.062790,294.570526 
M82.998512,287.471375 
	C82.999199,289.301727 82.957771,291.133179 83.006935,292.962219 
	C83.680191,318.007812 99.587601,324.678894 119.255508,321.110931 
	C125.163376,320.039185 127.016350,315.613983 126.203758,307.245148 
	C125.639374,301.432556 121.984360,302.148712 117.942436,302.414612 
	C111.576958,302.833313 107.953346,299.654327 107.113014,293.299805 
	C106.852859,291.332489 106.938728,289.313904 106.937820,287.318726 
	C106.927551,264.689087 106.957115,242.059387 106.914520,219.429810 
	C106.902534,213.064194 104.536133,209.517136 99.490829,207.825089 
	C90.289902,204.739319 83.044151,209.838882 83.017311,219.589844 
	C82.955948,241.886520 82.998283,264.183502 82.998512,287.471375 
M164.298035,254.710342 
	C163.882965,245.840179 160.222214,241.444412 153.022552,241.170898 
	C145.773087,240.895493 140.858429,244.886505 140.737671,252.498596 
	C140.431610,271.793182 140.436310,291.100128 140.776947,310.394012 
	C140.914185,318.167389 145.507126,321.759583 153.127319,321.486755 
	C160.441162,321.224884 164.206360,317.236786 164.259613,309.080994 
	C164.375885,291.274658 164.297195,273.467041 164.298035,254.710342 
M153.326492,204.166000 
	C143.765991,204.714203 139.482025,207.807983 138.884232,214.595856 
	C138.117493,223.301971 142.655304,228.016129 151.948364,228.167694 
	C161.792511,228.328262 166.485886,223.993347 166.060120,215.133759 
	C165.752640,208.735611 162.582199,205.834076 153.326492,204.166000 
z"/>
<path fill="#FCFCFD" opacity="1.000000" stroke="none" 
	d="
M342.146179,286.419189 
	C326.086639,286.467224 310.457520,286.467224 294.829224,286.467224 
	C294.872162,296.356781 301.796143,303.805603 312.310486,303.723175 
	C319.611542,303.665955 327.010376,301.830322 334.149506,299.963318 
	C339.677063,298.517731 343.434692,298.805267 345.554291,302.597168 
	C347.994385,306.962402 346.977600,311.880371 342.517334,314.870880 
	C328.067505,324.559204 294.406555,326.760284 279.099487,306.682617 
	C268.022858,292.153809 268.949646,266.998535 281.422852,253.430130 
	C294.274902,239.449615 317.430756,236.510391 332.989868,247.216568 
	C345.021545,255.495514 348.624359,267.839996 347.876068,281.662720 
	C347.786194,283.322968 344.422760,284.806000 342.146179,286.419189 
M326.063019,264.668121 
	C321.832092,257.855957 315.892853,255.418503 307.745056,257.150513 
	C300.461853,258.698700 295.678650,264.630188 294.370483,273.809723 
	C305.617035,273.809723 316.849091,273.809723 328.701385,273.809723 
	C327.863708,270.727875 327.135376,268.048279 326.063019,264.668121 
z"/>
<path fill="#FCFCFC" opacity="1.000000" stroke="none" 
	d="
M241.925919,294.924988 
	C239.216232,301.033691 236.555145,306.750519 234.095016,312.552551 
	C231.539215,318.580200 227.026550,321.775330 220.580292,321.764740 
	C214.065323,321.754059 209.686096,318.186401 207.142441,312.337555 
	C199.134872,293.924988 191.121902,275.514465 183.215103,257.058563 
	C180.308624,250.274323 181.826279,244.734787 186.899353,242.384872 
	C193.754974,239.209274 201.199951,241.615036 204.069763,248.393631 
	C207.948746,257.555908 211.414337,266.892944 215.076416,276.147430 
	C217.024124,281.069550 219.012146,285.975708 221.332840,291.764221 
	C227.116409,277.674530 232.463837,264.391876 238.060898,251.215256 
	C239.263641,248.383759 240.945709,245.483643 243.155777,243.415192 
	C246.586945,240.203888 253.085495,240.428574 256.657410,243.165726 
	C260.314850,245.968430 261.351807,250.487213 259.055573,255.834244 
	C253.492065,268.789612 247.739304,281.663696 241.925919,294.924988 
z"/>
<path fill="#FDFDFD" opacity="1.000000" stroke="none" 
	d="
M82.998505,286.975861 
	C82.998283,264.183502 82.955948,241.886520 83.017311,219.589844 
	C83.044151,209.838882 90.289902,204.739319 99.490829,207.825089 
	C104.536133,209.517136 106.902534,213.064194 106.914520,219.429810 
	C106.957115,242.059387 106.927551,264.689087 106.937820,287.318726 
	C106.938728,289.313904 106.852859,291.332489 107.113014,293.299805 
	C107.953346,299.654327 111.576958,302.833313 117.942436,302.414612 
	C121.984360,302.148712 125.639374,301.432556 126.203758,307.245148 
	C127.016350,315.613983 125.163376,320.039185 119.255508,321.110931 
	C99.587601,324.678894 83.680191,318.007812 83.006935,292.962219 
	C82.957771,291.133179 82.999199,289.301727 82.998505,286.975861 
z"/>
<path fill="#FEFEFE" opacity="1.000000" stroke="none" 
	d="
M164.298096,255.185135 
	C164.297195,273.467041 164.375885,291.274658 164.259613,309.080994 
	C164.206360,317.236786 160.441162,321.224884 153.127319,321.486755 
	C145.507126,321.759583 140.914185,318.167389 140.776947,310.394012 
	C140.436310,291.100128 140.431610,271.793182 140.737671,252.498596 
	C140.858429,244.886505 145.773087,240.895493 153.022552,241.170898 
	C160.222214,241.444412 163.882965,245.840179 164.298096,255.185135 
z"/>
<path fill="#FAFBFB" opacity="1.000000" stroke="none" 
	d="
M153.741791,204.203125 
	C162.582199,205.834076 165.752640,208.735611 166.060120,215.133759 
	C166.485886,223.993347 161.792511,228.328262 151.948364,228.167694 
	C142.655304,228.016129 138.117493,223.301971 138.884232,214.595856 
	C139.482025,207.807983 143.765991,204.714203 153.741791,204.203125 
z"/>
<path fill="#09101C" opacity="1.000000" stroke="none" 
	d="
M326.235046,265.018402 
	C327.135376,268.048279 327.863708,270.727875 328.701385,273.809723 
	C316.849091,273.809723 305.617035,273.809723 294.370483,273.809723 
	C295.678650,264.630188 300.461853,258.698700 307.745056,257.150513 
	C315.892853,255.418503 321.832092,257.855957 326.235046,265.018402 
z"/>
</svg>